# xmcd CD database file
#
# Track frame offsets:
#	150
#	21750
#	42296
#	68231
#	84132
#	103384
#	121356
#	141913
#	147455
#	162935
#	187012
#	206369
#	226241
#	233331
#
# Disc length: 3368 seconds
#
# Revision: 5
# Processed by: cddbd v1.4PL0 Copyright (c) Steve Scherf et al.
# Submitted via: CDex 1.40Beta8
#
DISCID=bc0d260e
DTITLE=Mariah Carey - Rainbow
DYEAR=1900
DGENRE=
TTITLE0=Heartbreaker
TTITLE1=Can't Take That Away (Mariah's Theme)
TTITLE2=Bliss
TTITLE3=How Much
TTITLE4=After Tonight
TTITLE5=X Girlfriend
TTITLE6=Heartbreaker (Remix)
TTITLE7=Vulnerability (Interlude)
TTITLE8=Against All Odds (Take A Look At Me Now)
TTITLE9=Crybaby
TTITLE10=Did I Do That? 
TTITLE11=Petals
TTITLE12=Rainbow (Interlude)
TTITLE13=Thank God I Found You
EXTD=
EXTT0=
EXTT1=
EXTT2=
EXTT3=
EXTT4=
EXTT5=
EXTT6=
EXTT7=
EXTT8=
EXTT9=
EXTT10=
EXTT11=
EXTT12=
EXTT13=
PLAYORDER=
